<svg width="191" height="191" fill="none" xmlns="http://www.w3.org/2000/svg"><circle cx="95.5" cy="95.5" r="90.5" stroke="#E9E9E9" stroke-width="10"/><path d="M118.923 182.916a90.501 90.501 0 01-16.282 2.802m16.282-2.802a90.501 90.501 0 01-16.282 2.802m38.109-11.843a90.487 90.487 0 01-15.002 6.921m15.002-6.921a90.487 90.487 0 01-15.002 6.921m48.127-40.046a90.501 90.501 0 01-9.532 13.494m9.532-13.494a90.501 90.501 0 01-9.532 13.494m-4.85 5.249a90.5 90.5 0 01-12.7 10.568m12.7-10.568a90.5 90.5 0 01-12.7 10.568m-27.87 12.855a90.501 90.501 0 01-16.282 2.802m16.282-2.802a90.501 90.501 0 01-16.282 2.802m38.109-11.843a90.487 90.487 0 01-15.002 6.921m15.002-6.921a90.487 90.487 0 01-15.002 6.921m48.127-40.046a90.501 90.501 0 01-9.532 13.494m9.532-13.494a90.501 90.501 0 01-9.532 13.494m-4.85 5.249a90.5 90.5 0 01-12.7 10.568m12.7-10.568a90.5 90.5 0 01-12.7 10.568" stroke="#4391CF" stroke-width="10"/></svg>