<svg xmlns="http://www.w3.org/2000/svg" width="800.001" height="399.999" viewBox="0 0 21166.66 10583.32" xmlns:xlink="http://www.w3.org/1999/xlink" shape-rendering="geometricPrecision" text-rendering="geometricPrecision" image-rendering="optimizeQuality" fill-rule="evenodd" clip-rule="evenodd"><defs><linearGradient id="a" gradientUnits="userSpaceOnUse" x1="3791.37" y1="5974.21" x2="5360.62" y2="4404.96"><stop offset="0" stop-color="#0089c5"/><stop offset="1" stop-color="#00a08f"/></linearGradient><linearGradient id="c" gradientUnits="userSpaceOnUse" xlink:href="#a" x1="3401.88" y1="6975.36" x2="6361.68" y2="4015.56"/><linearGradient id="b" gradientUnits="userSpaceOnUse" xlink:href="#a" x1="3100.75" y1="6855.8" x2="6839.94" y2="3116.61"/></defs><path d="M4664.81 8369.08c-67.66 0-122.55-54.82-122.55-122.52 0-67.7 54.89-122.59 122.55-122.59 1561.75 0 2832.45-1270.56 2832.45-2832.31s-1270.7-2832.31-2832.45-2832.31c-1561.72 0-2832.21 1270.56-2832.21 2832.31 0 67.7-54.82 122.59-122.54 122.59-67.7 0-122.57-54.89-122.57-122.59 0-1696.93 1380.4-3077.46 3077.32-3077.46 1696.93 0 3077.56 1380.53 3077.56 3077.46S6361.74 8369.08 4664.81 8369.08z" fill="url(#b)"/><path d="M4678.11 7385.53c-1154.67 0-2094-939.23-2094-2093.87 0-67.7 54.84-122.56 122.56-122.56 67.7 0 122.56 54.86 122.56 122.56 0 1019.38 829.42 1848.76 1848.88 1848.76 1019.25 0 1848.66-829.38 1848.66-1848.76 0-1019.35-829.41-1848.66-1848.66-1848.66-67.7 0-122.55-54.86-122.55-122.56s54.85-122.59 122.55-122.59c1154.43 0 2093.77 939.27 2093.77 2093.81 0 1154.64-939.34 2093.87-2093.77 2093.87z" fill="url(#c)"/><path d="M4678.11 6401.81c-612.17 0-1110.23-497.98-1110.23-1110.15 0-612.18 498.06-1110.12 1110.23-1110.12 612.14 0 1110.02 497.94 1110.02 1110.12 0 67.7-54.86 122.59-122.56 122.59s-122.55-54.89-122.55-122.59c0-476.99-387.95-865.01-864.91-865.01-476.99 0-865.12 388.02-865.12 865.01s388.13 865.01 865.12 865.01c67.7 0 122.56 54.86 122.56 122.55 0 67.7-54.86 122.59-122.56 122.59z" fill="url(#a)"/><path d="M11226.65 5291.69l513.68-513.61c43.11-43.11 43.11-112.99 0-156.1l-.53-.53c-43.1-43.07-112.99-43.07-156.1 0l-591.11 591.15c-.22.21-.46.25-.67.42l-.53.53c-21.35 21.35-31.97 49.29-32.18 77.3V4699.7c0-60.96-49.39-110.39-110.38-110.39h-2.15c-60.96 0-110.39 49.43-110.39 110.39v1184.03c0 60.96 49.43 110.38 110.39 110.38h2.15c60.99 0 110.38-49.42 110.38-110.38v-591.12c.21 27.98 10.83 55.88 32.18 77.26l.53.49c.21.21.45.25.67.46l591.11 591.15c43.11 43.11 113 43.11 156.1 0l.53-.53c43.11-43.11 43.11-112.99 0-156.07l-513.68-513.68zm-1564.21-716.42c-190.36 0-369.57 74.23-504.4 208.99-43.54 43.53-43.54 114.09 0 157.58 43.53 43.57 114.08 43.57 157.58 0 92.75-92.71 215.97-143.65 346.82-143.65 237.56 0 435.92 169.87 480.73 394.37h-544.8c-53.05 0-96.06 43.01-96.06 96.06 0 53.03 43.01 96.03 96.06 96.03h544.8c-44.77 224.54-243.14 394.44-480.73 394.44-130.85 0-254.07-50.9-346.82-143.65-43.5-43.53-114.05-43.53-157.58 0-43.54 43.53-43.54 114.09 0 157.62 134.83 134.73 314.04 208.99 504.4 208.99 393.34 0 713.38-320.04 713.38-713.39 0-393.38-320.04-713.39-713.38-713.39zm3040.2 222.92c-270.47 0-490.47 220.07-490.47 490.47 0 270.37 220 490.43 490.47 490.43 270.37 0 490.4-220.06 490.4-490.43 0-270.4-220.03-490.47-490.4-490.47zm0 1203.86c-393.35 0-713.35-320.04-713.35-713.39 0-393.38 320-713.39 713.35-713.39 393.28 0 713.28 320.01 713.28 713.39 0 393.35-320 713.39-713.28 713.39zm-687.67-3296.78c-.53-.18-1.06-.18-1.59-.32-6.1-1.06-11.67-3.67-18.09-3.67h-2.16c-2.5 0-4.62 1.27-7.09 1.45-12.1.14-23.63 2.61-34.96 7.02-.38.21-.81.21-1.2.39-12.41 5.04-23.56 12.48-33.37 22.54-.6.53-1.23.92-1.8 1.48-1.76 1.87-4.13 2.79-5.75 4.83l-454.98 569.25-455.04-569.25c-1.63-2.04-3.99-2.96-5.75-4.83-.53-.56-1.2-.95-1.8-1.48-9.81-10.06-20.92-17.5-33.34-22.54-.42-.18-.81-.18-1.24-.39-11.32-4.41-22.86-6.88-34.92-7.02-2.51-.18-4.59-1.45-7.09-1.45h-2.19c-6.42 0-11.99 2.61-18.1 3.67-.49.14-1.02.14-1.58.32-51.19 9.59-90.7 52.42-90.7 106.4v1184.02c0 60.96 49.42 110.39 110.38 110.39h2.19c60.92 0 110.35-49.43 110.35-110.39v-902.58l350.45 438.4c2.43 3.07 5.89 4.55 8.57 7.23 2.68 2.68 4.13 6.1 7.16 8.5 2.4 1.94 5.36 2.4 7.87 4.06 5.82 3.84 11.71 6.77 18.1 9.31 5.89 2.37 11.57 4.34 17.74 5.54 6.31 1.24 12.45 1.52 18.94 1.52 6.42 0 12.56-.28 18.91-1.52 6.18-1.2 11.86-3.17 17.75-5.54 6.35-2.54 12.24-5.47 18.06-9.31 2.54-1.66 5.5-2.12 7.87-4.06 3.03-2.4 4.48-5.82 7.16-8.5 2.68-2.68 6.14-4.16 8.57-7.23l350.45-438.4v902.58c0 60.96 49.42 110.39 110.38 110.39h2.16c60.96 0 110.38-49.43 110.38-110.39V2811.67c0-54.01-39.51-96.84-90.7-106.4zm4502.93-3.99h-929.22c-60.99 0-110.38 49.43-110.38 110.39v2.18c0 60.96 49.39 110.35 110.38 110.35h353.13v1071.49c0 60.96 49.43 110.39 110.35 110.39h2.19c60.99 0 110.38-49.43 110.38-110.39V2924.2h353.17c60.92 0 110.38-49.39 110.38-110.35v-2.18c0-60.96-49.46-110.39-110.38-110.39zm-1662.57 619.23h-431.06v-417.76h431.06c113.94 0 206.69 93.84 206.69 208.99s-92.75 208.77-206.69 208.77zm0-618.49h-537.78c-1.3-.03-2.36-.74-3.67-.74h-2.15c-60.96 0-110.38 49.43-110.38 110.39v1184.02c0 60.96 49.42 110.39 110.38 110.39h2.15c60.96 0 110.39-49.43 110.39-110.39v-474.48h431.06c224.65 0 407.42-183.73 407.42-409.47 0-225.99-182.77-409.72-407.42-409.72zM9838.76 4117.05c-393.39 0-713.39-320.01-713.39-713.39s320-713.39 713.39-713.39c190.39 0 369.53 74.23 504.4 208.99 43.53 43.53 43.53 114.09 0 157.62-43.54 43.53-114.09 43.53-157.59 0-92.74-92.74-215.97-143.68-346.81-143.68-270.48 0-490.47 220.09-490.47 490.46s219.99 490.47 490.47 490.47c130.84 0 254.07-50.94 346.81-143.69 43.5-43.53 114.05-43.53 157.59 0 43.53 43.54 43.53 114.06 0 157.62-134.87 134.76-314.01 208.99-504.4 208.99zm3088.74-559.44l213.57-491.56 213.54 491.56h-427.11zm856.69 401.54l-515.8-1187.45c-18.98-43.89-61.66-69.89-106.54-70.24l-41.45-.04c-44.91.36-87.66 26.36-106.64 70.28l-515.84 1187.45c-21.66 50.02 1.38 108.16 51.4 129.82l16.8 7.27c59.33 25.64 128.23-1.63 153.88-60.96l116.98-269.24h608.15l116.98 269.24c25.69 59.33 94.55 86.6 153.89 60.96l16.75-7.27c50.06-21.66 73.13-79.8 51.44-129.82zM9838.76 7891.31c-393.39 0-713.39-320.01-713.39-713.38 0-393.39 320-713.39 713.39-713.39 190.39 0 369.53 74.26 504.4 208.98 43.53 43.54 43.53 114.06 0 157.63-43.54 43.53-114.09 43.53-157.59 0-92.74-92.75-215.97-143.69-346.81-143.69-270.48 0-490.47 220.1-490.47 490.47 0 270.36 219.99 490.46 490.47 490.46 130.84 0 254.07-50.93 346.81-143.69 43.5-43.53 114.05-43.53 157.59 0 43.53 43.53 43.53 114.09 0 157.62-134.87 134.77-314.01 208.99-504.4 208.99zm3207.95 0c-393.25 0-713.29-320.01-713.29-713.38 0-393.39 320.04-713.39 713.29-713.39 190.39 0 369.57 74.26 504.4 208.98 43.53 43.54 43.53 114.06 0 157.63-43.54 43.53-114.06 43.53-157.62 0-92.75-92.75-215.94-143.69-346.78-143.69-270.37 0-490.33 220.1-490.33 490.47 0 270.36 219.96 490.46 490.33 490.46 130.84 0 254.03-50.93 346.78-143.69 43.56-43.53 114.08-43.53 157.62 0 43.53 43.53 43.53 114.09 0 157.62-134.83 134.77-314.01 208.99-504.4 208.99zm4825.85-1399.08c-.53-.17-1.05-.17-1.58-.32-6.14-1.05-11.68-3.63-18.1-3.63h-2.15c-2.51 0-4.62 1.27-7.09 1.41-12.07.18-23.6 2.61-34.96 7.06-.39.17-.82.21-1.2.39-12.39 5-23.53 12.41-33.34 22.47-.6.56-1.27.95-1.87 1.55-1.73 1.87-4.09 2.79-5.72 4.8l-454.97 569.27-455.05-569.27c-1.62-2.01-3.99-2.97-5.75-4.8-.53-.6-1.24-.99-1.8-1.52-9.81-10.05-20.92-17.5-33.34-22.5-.42-.18-.84-.22-1.27-.39-11.29-4.41-22.86-6.88-34.89-7.06-2.5-.14-4.58-1.41-7.09-1.41h-2.19c-6.42 0-11.96 2.58-18.09 3.63-.5.15-1.03.15-1.59.32-51.19 9.6-90.7 52.46-90.7 106.43V7782.7c0 60.95 49.42 110.33 110.38 110.33h2.19c60.96 0 110.35-49.38 110.35-110.33v-902.62l350.45 438.42c2.4 3.03 5.89 4.52 8.57 7.2 2.68 2.69 4.13 6.14 7.16 8.5 2.44 1.94 5.37 2.44 7.87 4.09 5.82 3.85 11.71 6.74 18.06 9.25 5.93 2.4 11.61 4.38 17.78 5.61 6.32 1.24 12.46 1.51 18.95 1.51 6.42 0 12.56-.27 18.91-1.51 6.17-1.23 11.81-3.21 17.74-5.61 6.35-2.51 12.24-5.4 18.1-9.25 2.54-1.65 5.47-2.15 7.83-4.09 3.03-2.36 4.48-5.81 7.13-8.5 2.71-2.68 6.2-4.17 8.6-7.2l350.45-438.42v902.62c0 60.95 49.39 110.33 110.39 110.33h2.15c60.99 0 110.38-49.38 110.38-110.33V6598.66c0-54.01-39.51-96.83-90.7-106.43zm-6000.01-15.59c-3.21 0-5.92 1.55-9.1 1.83-5.46.14-10.62 2.19-16.05 3.21-6.77 1.63-13.83 2.16-20.04 4.94-11.04 4.59-20.88 11.68-30.02 20.22-1.16 1.13-2.71 1.69-3.88 2.85-.77.82-1.87 1.1-2.61 1.94l-818.2 979.35v-902.9c0-61.56-49.91-111.44-111.47-111.44-61.53 0-111.45 49.88-111.45 111.44v1181.88c0 49.87 33.38 90.59 78.57 104.8 6.42 2.48 13.05 2.9 19.79 4 4.51.57 8.43 2.65 13.09 2.65.77 0 1.41-.43 2.18-.43 28.3.38 56.55-9.92 77.09-32.49l820.66-982.28v903.75c0 61.56 49.92 111.45 111.44 111.45 61.56 0 111.48-49.89 111.48-111.45V6588.08c0-61.56-49.92-111.44-111.48-111.44zm4370.64 1191.93h-745.35v-446.7h572.95c55.38 0 100.33-44.89 100.33-100.29 0-55.38-44.95-100.32-100.33-100.32h-572.95v-333.91h657.4c58.53 0 105.91-47.41 105.91-105.9 0-58.49-47.38-105.87-105.91-105.87h-774.49c-58.45 0-105.87 47.38-105.87 105.87 0 .81.46 1.48.46 2.26 0 .74-.46 1.41-.46 2.22v1184.06c0 .77.46 1.45.46 2.22 0 .81-.46 1.45-.46 2.26 0 58.45 47.42 105.88 105.87 105.88h862.44c58.45 0 105.87-47.43 105.87-105.88 0-58.48-47.42-105.9-105.87-105.9zm-1384.58-1192.99h-929.22c-60.96 0-110.38 49.39-110.38 110.35v2.19c0 60.96 49.42 110.38 110.38 110.38h353.13v1071.49c0 60.92 49.46 110.36 110.39 110.36h2.18c60.96 0 110.39-49.44 110.39-110.36V6698.5h353.13c60.99 0 110.38-49.42 110.38-110.38v-2.19c0-60.96-49.39-110.35-110.38-110.35zm3855.72 869.04l213.57-491.57 213.54 491.57h-427.11zm856.72 401.53l-515.87-1187.45c-18.94-43.86-61.63-69.86-106.54-70.24h-41.41c-44.91.31-87.67 26.35-106.68 70.24l-515.8 1187.45c-21.66 50.05 1.38 108.19 51.43 129.85l16.76 7.27c59.34 25.61 128.24-1.66 153.92-61l116.94-269.24h608.16l116.98 269.24c25.65 59.34 94.54 86.61 153.88 61l16.79-7.27c50.03-21.66 73.06-79.8 51.44-129.85z" fill="#252422" fill-rule="nonzero"/></svg>