<svg width="113" height="97" fill="none" xmlns="http://www.w3.org/2000/svg"><rect y="65" width="113" height="32" rx="16" fill="#fff"/><circle cx="57" cy="36" r="36" fill="#fff"/><path d="M84.557 75.054l3.624-3.623a.779.779 0 000-1.102l-.004-.003a.78.78 0 00-1.101 0l-4.17 4.17-.005.003-.004.004a.776.776 0 00-.227.545v-4.17a.779.779 0 00-.778-.779h-.016a.779.779 0 00-.778.779v8.353c0 .43.348.778.778.778h.016c.43 0 .778-.348.778-.778v-4.17a.776.776 0 00.227.545l.004.003.005.003 4.17 4.17a.779.779 0 001.101 0l.004-.003a.779.779 0 000-1.101l-3.624-3.624z" fill="url(#paint0_linear_123_52)"/><path d="M73.52 70a5.002 5.002 0 00-3.56 1.474.786.786 0 101.113 1.112 3.439 3.439 0 012.446-1.013 3.465 3.465 0 013.392 2.782h-3.844a.678.678 0 000 1.355h3.844a3.464 3.464 0 01-3.392 2.783 3.437 3.437 0 01-2.447-1.014.786.786 0 10-1.111 1.112 5.003 5.003 0 003.558 1.475 5.039 5.039 0 005.033-5.033A5.038 5.038 0 0073.519 70z" fill="url(#paint1_linear_123_52)"/><path d="M94.968 71.573a3.464 3.464 0 00-3.46 3.46 3.464 3.464 0 003.46 3.46 3.464 3.464 0 003.46-3.46 3.464 3.464 0 00-3.46-3.46zm0 8.493a5.038 5.038 0 01-5.032-5.033A5.038 5.038 0 0194.968 70 5.038 5.038 0 01100 75.033a5.038 5.038 0 01-5.032 5.032z" fill="url(#paint2_linear_123_52)"/><path d="M34.386 70.106l-.012-.002c-.043-.008-.082-.026-.127-.026h-.016c-.017 0-.032.009-.05.01a.696.696 0 00-.246.05.688.688 0 00-.244.162l-.013.01c-.012.013-.029.02-.04.034l-3.21 4.016-3.21-4.016c-.012-.015-.028-.021-.04-.034l-.014-.01a.685.685 0 00-.235-.16l-.008-.003a.695.695 0 00-.247-.05c-.017 0-.032-.01-.05-.01h-.015c-.046 0-.085.019-.128.026-.003.002-.007.002-.011.003a.768.768 0 00-.64.75v8.353c0 .43.349.779.779.779h.015a.78.78 0 00.779-.779v-6.367l2.472 3.093c.017.021.042.032.06.05.02.02.03.044.051.06.017.014.038.017.055.03a.689.689 0 00.128.065c.042.017.082.03.125.039.045.009.088.01.134.01a.688.688 0 00.133-.01.682.682 0 00.126-.04.696.696 0 00.127-.065c.018-.011.039-.015.055-.028.022-.017.032-.042.051-.06.019-.02.043-.03.06-.051l2.473-3.093v6.367c0 .43.348.779.778.779h.016c.43 0 .778-.349.778-.779v-8.353a.768.768 0 00-.64-.75z" fill="url(#paint3_linear_123_52)"/><path d="M66.152 70.078h-6.555a.779.779 0 00-.779.778v.016c0 .43.349.778.78.778h2.49v7.56c0 .43.349.778.779.778h.015a.78.78 0 00.779-.779V71.65h2.491a.78.78 0 00.78-.778v-.016a.779.779 0 00-.78-.778z" fill="url(#paint4_linear_123_52)"/><path d="M54.422 74.446h-3.04V71.5h3.04c.804 0 1.458.662 1.458 1.474 0 .813-.654 1.473-1.458 1.473zm0-4.363h-3.794c-.009 0-.016-.005-.026-.005h-.015a.779.779 0 00-.778.778v8.353c0 .43.348.779.778.779h.015a.78.78 0 00.78-.779v-3.347h3.04a2.885 2.885 0 002.874-2.889 2.885 2.885 0 00-2.874-2.89z" fill="url(#paint5_linear_123_52)"/><path d="M19.033 80.066A5.038 5.038 0 0114 75.032 5.038 5.038 0 0119.033 70c1.343 0 2.607.524 3.558 1.474a.786.786 0 11-1.112 1.112 3.438 3.438 0 00-2.446-1.013 3.464 3.464 0 00-3.46 3.46 3.464 3.464 0 003.46 3.46c.923 0 1.792-.36 2.446-1.014a.786.786 0 111.112 1.112 5.002 5.002 0 01-3.558 1.475z" fill="url(#paint6_linear_123_52)"/><path d="M40.822 76.119l1.507-3.468 1.507 3.468h-3.014zm6.044 2.832l-3.639-8.376a.823.823 0 00-.751-.496h-.293a.824.824 0 00-.752.496l-3.64 8.376a.697.697 0 00.363.916l.119.052a.826.826 0 001.085-.43l.826-1.9h4.29l.825 1.9a.826.826 0 001.086.43l.118-.052a.696.696 0 00.363-.916z" fill="url(#paint7_linear_123_52)"/><path d="M25.38 92.764a5.038 5.038 0 01-5.032-5.033 5.038 5.038 0 015.032-5.033c1.344 0 2.607.524 3.559 1.475a.787.787 0 01-1.112 1.112 3.438 3.438 0 00-2.447-1.014 3.464 3.464 0 00-3.46 3.46 3.464 3.464 0 003.46 3.46 3.44 3.44 0 002.447-1.014.786.786 0 111.112 1.112 5.002 5.002 0 01-3.559 1.475z" fill="url(#paint8_linear_123_52)"/><path d="M48.013 92.764a5.038 5.038 0 01-5.032-5.033 5.038 5.038 0 015.032-5.033 5 5 0 013.558 1.475.786.786 0 01-1.112 1.112 3.437 3.437 0 00-2.447-1.014 3.464 3.464 0 00-3.459 3.46 3.464 3.464 0 003.46 3.46 3.44 3.44 0 002.446-1.014.786.786 0 111.112 1.112 5.002 5.002 0 01-3.558 1.475z" fill="url(#paint9_linear_123_52)"/><path d="M82.055 82.894l-.01-.002c-.044-.008-.083-.026-.128-.026H81.9c-.017 0-.032.009-.05.01a.698.698 0 00-.246.05l-.009.002a.68.68 0 00-.235.159l-.013.01c-.012.014-.029.02-.04.035l-3.21 4.016-3.21-4.016c-.012-.014-.028-.021-.04-.034l-.013-.01a.68.68 0 00-.236-.16l-.009-.002a.701.701 0 00-.246-.05c-.017-.001-.032-.01-.05-.01h-.015c-.046 0-.085.018-.128.026-.004 0-.007 0-.011.002a.768.768 0 00-.64.75v8.354c0 .43.349.778.779.778h.015c.43 0 .779-.348.779-.778V85.63l2.472 3.093c.017.021.041.032.06.05.02.02.03.044.05.06.018.014.039.018.056.03a.675.675 0 00.128.065c.042.017.082.03.125.04.045.008.088.01.134.01a.68.68 0 00.133-.01.682.682 0 00.126-.04.687.687 0 00.127-.066c.018-.011.039-.015.055-.028.022-.017.032-.041.05-.06.02-.02.044-.03.061-.051l2.473-3.093v6.368c0 .43.348.778.778.778h.016c.43 0 .778-.348.778-.778v-8.353a.768.768 0 00-.64-.751z" fill="url(#paint10_linear_123_52)"/><path d="M39.732 82.784c-.023 0-.042.01-.065.013-.038 0-.075.015-.113.022-.047.012-.097.016-.141.035a.716.716 0 00-.212.143c-.008.008-.019.012-.027.02-.006.006-.014.008-.019.014l-5.772 6.909v-6.37a.786.786 0 00-1.573 0v8.338c0 .352.236.639.555.74.045.017.092.02.14.027.031.004.059.019.092.019l.015-.003c.2.003.4-.07.544-.23l5.79-6.929v6.376a.786.786 0 001.572 0V83.57a.786.786 0 00-.786-.786z" fill="url(#paint11_linear_123_52)"/><path d="M70.564 91.192h-5.259v-3.15h4.042a.708.708 0 100-1.416h-4.042V84.27h4.638a.747.747 0 100-1.494H64.48a.747.747 0 00-.747.747c0 .006.004.01.004.016 0 .005-.004.01-.004.016v8.353c0 .005.004.01.004.016 0 .005-.004.01-.004.015 0 .413.335.748.747.748h6.085a.747.747 0 000-1.495z" fill="url(#paint12_linear_123_52)"/><path d="M60.797 82.776h-6.555a.778.778 0 00-.78.779v.015c0 .43.35.779.78.779h2.49v7.559c0 .43.35.778.78.778h.015c.43 0 .779-.348.779-.778v-7.56h2.49c.431 0 .78-.348.78-.778v-.015a.778.778 0 00-.78-.779z" fill="url(#paint13_linear_123_52)"/><path d="M87.994 88.907l1.507-3.468 1.506 3.468h-3.013zm6.044 2.833l-3.64-8.377a.824.824 0 00-.75-.496h-.293a.825.825 0 00-.752.496l-3.64 8.377a.697.697 0 00.364.916l.118.051a.826.826 0 001.086-.43l.825-1.9h4.29l.825 1.9a.826.826 0 001.086.43l.118-.051a.697.697 0 00.363-.916z" fill="url(#paint14_linear_123_52)"/><path fill-rule="evenodd" clip-rule="evenodd" d="M56.773 66.549a1.225 1.225 0 110-2.451c15.618 0 28.325-12.706 28.325-28.323 0-15.618-12.707-28.323-28.325-28.323-15.617 0-28.322 12.705-28.322 28.323a1.225 1.225 0 11-2.451 0C26 18.805 39.804 5 56.773 5 73.743 5 87.55 18.805 87.55 35.775c0 16.969-13.807 30.774-30.776 30.774z" fill="url(#paint15_linear_123_52)"/><path fill-rule="evenodd" clip-rule="evenodd" d="M56.907 56.713c-11.547 0-20.94-9.392-20.94-20.938a1.225 1.225 0 112.451 0c0 10.193 8.294 18.487 18.489 18.487 10.192 0 18.486-8.294 18.486-18.487 0-10.194-8.294-18.487-18.486-18.487a1.225 1.225 0 110-2.452c11.544 0 20.937 9.393 20.937 20.939s-9.393 20.938-20.937 20.938z" fill="url(#paint16_linear_123_52)"/><path fill-rule="evenodd" clip-rule="evenodd" d="M56.907 46.876c-6.122 0-11.102-4.98-11.102-11.101 0-6.122 4.98-11.102 11.102-11.102 6.121 0 11.1 4.98 11.1 11.102a1.226 1.226 0 11-2.45 0c0-4.77-3.88-8.65-8.65-8.65-4.77 0-8.651 3.88-8.651 8.65 0 4.77 3.881 8.65 8.651 8.65a1.225 1.225 0 110 2.451z" fill="url(#paint17_linear_123_52)"/><defs><linearGradient id="paint0_linear_123_52" x1="81.834" y1="78.102" x2="88.527" y2="73.165" gradientUnits="userSpaceOnUse"><stop stop-color="#0089C5"/><stop offset="1" stop-color="#00A08F"/></linearGradient><linearGradient id="paint1_linear_123_52" x1="70.618" y1="78.127" x2="77.671" y2="71.946" gradientUnits="userSpaceOnUse"><stop stop-color="#0089C5"/><stop offset="1" stop-color="#00A08F"/></linearGradient><linearGradient id="paint2_linear_123_52" x1="90.949" y1="78.127" x2="98.063" y2="71.013" gradientUnits="userSpaceOnUse"><stop stop-color="#0089C5"/><stop offset="1" stop-color="#00A08F"/></linearGradient><linearGradient id="paint3_linear_123_52" x1="26.756" y1="78.079" x2="33.741" y2="71.598" gradientUnits="userSpaceOnUse"><stop stop-color="#0089C5"/><stop offset="1" stop-color="#00A08F"/></linearGradient><linearGradient id="paint4_linear_123_52" x1="59.635" y1="78.079" x2="66.501" y2="72.458" gradientUnits="userSpaceOnUse"><stop stop-color="#0089C5"/><stop offset="1" stop-color="#00A08F"/></linearGradient><linearGradient id="paint5_linear_123_52" x1="50.562" y1="78.079" x2="57.3" y2="72.988" gradientUnits="userSpaceOnUse"><stop stop-color="#0089C5"/><stop offset="1" stop-color="#00A08F"/></linearGradient><linearGradient id="paint6_linear_123_52" x1="14.888" y1="78.127" x2="21.941" y2="71.946" gradientUnits="userSpaceOnUse"><stop stop-color="#0089C5"/><stop offset="1" stop-color="#00A08F"/></linearGradient><linearGradient id="paint7_linear_123_52" x1="38.659" y1="78.079" x2="45.642" y2="71.602" gradientUnits="userSpaceOnUse"><stop stop-color="#0089C5"/><stop offset="1" stop-color="#00A08F"/></linearGradient><linearGradient id="paint8_linear_123_52" x1="21.236" y1="90.825" x2="28.288" y2="84.644" gradientUnits="userSpaceOnUse"><stop stop-color="#0089C5"/><stop offset="1" stop-color="#00A08F"/></linearGradient><linearGradient id="paint9_linear_123_52" x1="43.868" y1="90.825" x2="50.921" y2="84.645" gradientUnits="userSpaceOnUse"><stop stop-color="#0089C5"/><stop offset="1" stop-color="#00A08F"/></linearGradient><linearGradient id="paint10_linear_123_52" x1="74.426" y1="90.867" x2="81.41" y2="84.386" gradientUnits="userSpaceOnUse"><stop stop-color="#0089C5"/><stop offset="1" stop-color="#00A08F"/></linearGradient><linearGradient id="paint11_linear_123_52" x1="32.687" y1="90.785" x2="39.633" y2="84.682" gradientUnits="userSpaceOnUse"><stop stop-color="#0089C5"/><stop offset="1" stop-color="#00A08F"/></linearGradient><linearGradient id="paint12_linear_123_52" x1="64.495" y1="90.778" x2="71.255" y2="85.609" gradientUnits="userSpaceOnUse"><stop stop-color="#0089C5"/><stop offset="1" stop-color="#00A08F"/></linearGradient><linearGradient id="paint13_linear_123_52" x1="54.279" y1="90.778" x2="61.146" y2="85.157" gradientUnits="userSpaceOnUse"><stop stop-color="#0089C5"/><stop offset="1" stop-color="#00A08F"/></linearGradient><linearGradient id="paint14_linear_123_52" x1="85.831" y1="90.867" x2="92.814" y2="84.39" gradientUnits="userSpaceOnUse"><stop stop-color="#0089C5"/><stop offset="1" stop-color="#00A08F"/></linearGradient><linearGradient id="paint15_linear_123_52" x1="32.196" y1="54.695" x2="75.697" y2="11.193" gradientUnits="userSpaceOnUse"><stop stop-color="#0089C5"/><stop offset="1" stop-color="#00A08F"/></linearGradient><linearGradient id="paint16_linear_123_52" x1="40.182" y1="48.648" x2="69.78" y2="19.049" gradientUnits="userSpaceOnUse"><stop stop-color="#0089C5"/><stop offset="1" stop-color="#00A08F"/></linearGradient><linearGradient id="paint17_linear_123_52" x1="48.04" y1="42.6" x2="63.732" y2="26.907" gradientUnits="userSpaceOnUse"><stop stop-color="#0089C5"/><stop offset="1" stop-color="#00A08F"/></linearGradient></defs></svg>