<svg width="21" height="21" fill="none" xmlns="http://www.w3.org/2000/svg"><g clip-path="url(#clip0_68_7)"><path fill-rule="evenodd" clip-rule="evenodd" d="M1.64 20.262l-.912-.893c.042-.152.598-.974.749-1.2l.754-1.173c.184-.275.34-.531.517-.795l2.06 2.04-1.953 1.266c-.143.095-.262.18-.396.26-.188.112-.644.454-.818.494zm3.661-2.41l-2.153-2.174 5.086-5.065 2.153 2.132-5.086 5.107zm5.773-9.936a.582.582 0 01-.442-.174c-.494-.543.185-1.025.452-1.293l.739-.738 1.476-1.476c.231-.231 2.802-2.842 2.984-2.964l.871.852c-.203.139-4.653 4.633-5.188 5.167-.216.217-.502.626-.892.626zm7.793-4.963l-.83-.852c.825-.563 1.45-2 2.156-1.294a.586.586 0 01.123.682c-.065.142-1.332 1.386-1.449 1.464zM17.596 1.64c-.37-.247-.966-1.148-1.313-1.148-.23 0-.654.51-.892.748L10.47 6.162c-.536.536-.625.62-.625 1.303 0 .65 1.089 1.776 2.266.584.526-.532 5.29-5.334 5.486-5.465l1.486 1.466-8.244 8.265-2.153-2.174c.12-.082 1.076-1.006 1.147-1.175a.304.304 0 00-.275-.435c-.248 0-1.127.983-1.344 1.2l-5.086 5.086c-.211.211-.44.416-.635.635-.096.107-.167.236-.253.363-.099.149-.166.244-.257.399C1.802 16.52 0 19.217 0 19.318c0 .413.307.462.492.738-.205.307-.492.323-.492.698 0 .191.21.246.37.246.115 0 .34-.275.466-.395l.107-.098c.276.185.325.493.739.493.056 0 3.721-2.345 3.948-2.573l13.699-13.7c.416-.417.523-.38.523-.749 0-.127-.407-.446-.493-.574C19.78 2.778 21 2.091 21 1.354v-.247C21 .58 20.421 0 19.893 0c-.756 0-.823.186-1.364.728-.228.227-.71.762-.933.912z" fill="#fff"/></g><defs><clipPath id="clip0_68_7"><path fill="#fff" d="M0 0h21v21H0z"/></clipPath></defs></svg>