<svg width="191" height="191" viewBox="0 0 191 191" fill="none" xmlns="http://www.w3.org/2000/svg">
<circle cx="95.5" cy="95.5" r="90.5" stroke="#E9E9E9" stroke-width="10"/>
<path d="M118.923 182.916C113.592 184.345 108.142 185.282 102.641 185.718" stroke="#4391CF" stroke-width="10"/>
<path d="M118.923 182.916C113.592 184.345 108.142 185.282 102.641 185.718" stroke="#4391CF" stroke-width="10"/>
<path d="M140.75 173.875C135.971 176.635 130.949 178.951 125.748 180.796" stroke="#4391CF" stroke-width="10"/>
<path d="M140.75 173.875C135.971 176.635 130.949 178.951 125.748 180.796" stroke="#4391CF" stroke-width="10"/>
<path d="M173.875 140.75C171.116 145.529 167.925 150.046 164.343 154.244" stroke="#4391CF" stroke-width="10"/>
<path d="M173.875 140.75C171.116 145.529 167.925 150.046 164.343 154.244" stroke="#4391CF" stroke-width="10"/>
<path d="M159.493 159.493C155.591 163.395 151.34 166.933 146.793 170.061" stroke="#4391CF" stroke-width="10"/>
<path d="M159.493 159.493C155.591 163.395 151.34 166.933 146.793 170.061" stroke="#4391CF" stroke-width="10"/>
<path d="M118.923 182.916C113.592 184.345 108.142 185.282 102.641 185.718" stroke="#4391CF" stroke-width="10"/>
<path d="M118.923 182.916C113.592 184.345 108.142 185.282 102.641 185.718" stroke="#4391CF" stroke-width="10"/>
<path d="M140.75 173.875C135.971 176.635 130.949 178.951 125.748 180.796" stroke="#4391CF" stroke-width="10"/>
<path d="M140.75 173.875C135.971 176.635 130.949 178.951 125.748 180.796" stroke="#4391CF" stroke-width="10"/>
<path d="M173.875 140.75C171.116 145.529 167.925 150.046 164.343 154.244" stroke="#4391CF" stroke-width="10"/>
<path d="M173.875 140.75C171.116 145.529 167.925 150.046 164.343 154.244" stroke="#4391CF" stroke-width="10"/>
<path d="M159.493 159.493C155.591 163.395 151.34 166.933 146.793 170.061" stroke="#4391CF" stroke-width="10"/>
<path d="M159.493 159.493C155.591 163.395 151.34 166.933 146.793 170.061" stroke="#4391CF" stroke-width="10"/>
</svg>
