<svg width="113" height="97" viewBox="0 0 113 97" fill="none" xmlns="http://www.w3.org/2000/svg">
<rect y="65" width="113" height="32" rx="16" fill="white"/>
<circle cx="57" cy="36" r="36" fill="white"/>
<path d="M84.557 75.0541L88.1808 71.4308C88.4849 71.1266 88.4849 70.6336 88.1808 70.3295L88.1771 70.3258C87.873 70.0219 87.38 70.0219 87.0758 70.3258L82.9058 74.4961C82.9042 74.4976 82.9025 74.4979 82.901 74.4991L82.8973 74.5028C82.7467 74.6535 82.6718 74.8506 82.6703 75.0482V70.8778C82.6703 70.4478 82.3219 70.099 81.8916 70.099H81.8764C81.4464 70.099 81.0977 70.4478 81.0977 70.8778V79.2307C81.0977 79.6608 81.4464 80.0094 81.8764 80.0094H81.8916C82.3219 80.0094 82.6703 79.6608 82.6703 79.2307V75.0606C82.6718 75.258 82.7467 75.4548 82.8973 75.6056L82.901 75.6091C82.9025 75.6106 82.9042 75.6109 82.9058 75.6123L87.0758 79.7827C87.38 80.0868 87.873 80.0868 88.1771 79.7827L88.1808 79.779C88.4849 79.4748 88.4849 78.9819 88.1808 78.6779L84.557 75.0541Z" fill="url(#paint0_linear_123_52)"/>
<path d="M73.5192 70C72.1763 70 70.912 70.5237 69.9608 71.4744C69.6537 71.7814 69.6537 72.2792 69.9608 72.586C70.2679 72.8934 70.7656 72.8934 71.0725 72.586C71.7268 71.932 72.5961 71.5726 73.5192 71.5726C75.1951 71.5726 76.5945 72.771 76.9106 74.3548H73.0672C72.693 74.3548 72.3895 74.6582 72.3895 75.0324C72.3895 75.4066 72.693 75.7099 73.0672 75.7099H76.9106C76.5948 77.294 75.1953 78.4925 73.5192 78.4925C72.5961 78.4925 71.7268 78.1335 71.0725 77.4791C70.7656 77.1721 70.2679 77.1721 69.9608 77.4791C69.6537 77.7862 69.6537 78.284 69.9608 78.5911C70.912 79.5416 72.1763 80.0655 73.5192 80.0655C76.2941 80.0655 78.5519 77.8077 78.5519 75.0327C78.5519 72.2576 76.2941 70 73.5192 70V70Z" fill="url(#paint1_linear_123_52)"/>
<path d="M94.968 71.5726C93.0599 71.5726 91.5079 73.1251 91.5079 75.0327C91.5079 76.9401 93.0599 78.4925 94.968 78.4925C96.8754 78.4925 98.4276 76.9401 98.4276 75.0327C98.4276 73.1251 96.8754 71.5726 94.968 71.5726ZM94.968 80.0655C92.193 80.0655 89.9355 77.8077 89.9355 75.0327C89.9355 72.2576 92.193 70 94.968 70C97.7424 70 99.9999 72.2576 99.9999 75.0327C99.9999 77.8077 97.7424 80.0655 94.968 80.0655Z" fill="url(#paint2_linear_123_52)"/>
<path d="M34.3855 70.1058C34.3818 70.1045 34.3781 70.1045 34.3743 70.1035C34.3313 70.096 34.292 70.0776 34.2467 70.0776H34.2315C34.2138 70.0776 34.1989 70.0866 34.1815 70.0879C34.0961 70.0889 34.0148 70.1063 33.9348 70.1374C33.9321 70.1389 33.9291 70.1389 33.9264 70.1401C33.8388 70.1757 33.7602 70.2282 33.6909 70.2992C33.6867 70.3029 33.6823 70.3056 33.6782 70.3096C33.6658 70.3228 33.6491 70.3293 33.6377 70.3437L30.428 74.3595L27.2178 70.3437C27.2063 70.3293 27.1897 70.3228 27.1772 70.3096C27.1735 70.3056 27.1688 70.3029 27.1645 70.2992C27.0953 70.2282 27.017 70.1757 26.9293 70.1401C26.9264 70.1389 26.9236 70.1389 26.9206 70.1374C26.8407 70.1063 26.7593 70.0889 26.6742 70.0879C26.6565 70.0866 26.6419 70.0776 26.6242 70.0776H26.6088C26.5635 70.0776 26.5242 70.096 26.4811 70.1035C26.4776 70.1045 26.4739 70.1045 26.4699 70.1058C26.1088 70.1734 25.8301 70.4756 25.8301 70.8564V79.2093C25.8301 79.6393 26.1787 79.988 26.6088 79.988H26.6242C27.054 79.988 27.4027 79.6393 27.4027 79.2093V72.8419L29.875 75.9346C29.8921 75.9563 29.9166 75.9667 29.9355 75.9856C29.9544 76.0045 29.9646 76.0287 29.986 76.0456C30.0029 76.0593 30.0238 76.0625 30.0415 76.0742C30.0826 76.1013 30.1241 76.122 30.1692 76.1399C30.2107 76.1566 30.2508 76.1705 30.2943 76.179C30.3389 76.1877 30.3822 76.1897 30.428 76.1897C30.4732 76.1897 30.5166 76.1877 30.5614 76.179C30.605 76.1705 30.645 76.1566 30.6866 76.1399C30.7314 76.122 30.7729 76.1013 30.814 76.0742C30.8319 76.0625 30.8528 76.0593 30.8695 76.0456C30.8909 76.0287 30.9011 76.0045 30.92 75.9856C30.9389 75.9667 30.9633 75.9563 30.9805 75.9346L33.4528 72.8419V79.2093C33.4528 79.6393 33.8014 79.988 34.2315 79.988H34.2467C34.6768 79.988 35.0254 79.6393 35.0254 79.2093V70.8564C35.0254 70.4754 34.7467 70.1732 34.3855 70.1058V70.1058Z" fill="url(#paint3_linear_123_52)"/>
<path d="M66.1524 70.0776H59.5971C59.1668 70.0776 58.8184 70.4263 58.8184 70.8564V70.8718C58.8184 71.3018 59.1668 71.6503 59.5971 71.6503H62.0883V79.2093C62.0883 79.6393 62.437 79.988 62.8668 79.988H62.8822C63.3125 79.988 63.6609 79.6393 63.6609 79.2093V71.6503H66.1524C66.5822 71.6503 66.9311 71.3018 66.9311 70.8718V70.8564C66.9311 70.4263 66.5822 70.0776 66.1524 70.0776Z" fill="url(#paint4_linear_123_52)"/>
<path d="M54.4222 74.4461H51.3812V71.4989H54.4222C55.226 71.4989 55.8803 72.1609 55.8803 72.9733C55.8803 73.7856 55.226 74.4461 54.4222 74.4461V74.4461ZM54.4222 70.0829H50.6283C50.6192 70.0826 50.6117 70.0776 50.6025 70.0776H50.5873C50.1572 70.0776 49.8086 70.4263 49.8086 70.8564V79.2093C49.8086 79.6393 50.1572 79.988 50.5873 79.988H50.6025C51.0325 79.988 51.3812 79.6393 51.3812 79.2093V75.862H54.4222C56.007 75.862 57.2964 74.5658 57.2964 72.9733C57.2964 71.379 56.007 70.0829 54.4222 70.0829V70.0829Z" fill="url(#paint5_linear_123_52)"/>
<path d="M19.0327 80.0655C16.2575 80.0655 14 77.8079 14 75.0327C14 72.2576 16.2575 70 19.0327 70C20.3759 70 21.6396 70.5237 22.5911 71.4744C22.8982 71.7814 22.8982 72.2792 22.5911 72.5863C22.2839 72.8934 21.7862 72.8934 21.4794 72.5863C20.8251 71.9321 19.9558 71.5727 19.0327 71.5727C17.1246 71.5727 15.5726 73.1254 15.5726 75.0327C15.5726 76.9401 17.1246 78.4928 19.0327 78.4928C19.9558 78.4928 20.8251 78.1335 21.4794 77.4791C21.7862 77.1721 22.2839 77.1721 22.5911 77.4791C22.8982 77.7863 22.8982 78.2838 22.5911 78.5911C21.6396 79.5418 20.3759 80.0655 19.0327 80.0655Z" fill="url(#paint6_linear_123_52)"/>
<path d="M40.8224 76.1188L42.329 72.651L43.8355 76.1188H40.8224ZM46.866 78.9515L43.2272 70.5745C43.0933 70.2648 42.7922 70.0814 42.4756 70.079L42.1832 70.0787C41.8664 70.0812 41.5648 70.2646 41.4309 70.5745L37.7918 78.9515C37.639 79.3044 37.8016 79.7146 38.1544 79.8674L38.273 79.9187C38.6915 80.0995 39.1776 79.9072 39.3585 79.4886L40.1838 77.5892H44.4741L45.2993 79.4886C45.4806 79.9072 45.9663 80.0995 46.385 79.9187L46.5031 79.8674C46.8563 79.7146 47.019 79.3044 46.866 78.9515V78.9515Z" fill="url(#paint7_linear_123_52)"/>
<path d="M25.3804 92.7637C22.6051 92.7637 20.3477 90.5062 20.3477 87.7311C20.3477 84.9559 22.6051 82.6984 25.3804 82.6984C26.7235 82.6984 27.9873 83.2222 28.9388 84.1726C29.2458 84.4798 29.2458 84.9773 28.9388 85.2847C28.6316 85.5918 28.1339 85.5918 27.827 85.2847C27.1728 84.6304 26.3034 84.271 25.3804 84.271C23.4722 84.271 21.9203 85.8237 21.9203 87.7311C21.9203 89.6384 23.4722 91.1911 25.3804 91.1911C26.3034 91.1911 27.1728 90.8318 27.827 90.1774C28.1339 89.8703 28.6316 89.8703 28.9388 90.1774C29.2458 90.4845 29.2458 90.9823 28.9388 91.2894C27.9873 92.2401 26.7235 92.7637 25.3804 92.7637Z" fill="url(#paint8_linear_123_52)"/>
<path d="M48.0125 92.7637C45.2382 92.7637 42.9805 90.5062 42.9805 87.7311C42.9805 84.9559 45.2382 82.6984 48.0125 82.6984C49.3556 82.6984 50.6197 83.2222 51.5709 84.1726C51.878 84.4798 51.878 84.9773 51.5709 85.2847C51.2637 85.5918 50.7662 85.5918 50.4589 85.2847C49.8046 84.6304 48.9355 84.271 48.0125 84.271C46.1051 84.271 44.5534 85.8237 44.5534 87.7311C44.5534 89.6384 46.1051 91.1911 48.0125 91.1911C48.9355 91.1911 49.8046 90.8318 50.4589 90.1774C50.7662 89.8703 51.2637 89.8703 51.5709 90.1774C51.878 90.4845 51.878 90.9823 51.5709 91.2894C50.6197 92.2401 49.3556 92.7637 48.0125 92.7637Z" fill="url(#paint9_linear_123_52)"/>
<path d="M82.0555 82.8938C82.0517 82.8926 82.0481 82.8926 82.0443 82.8916C82.001 82.8842 81.9619 82.866 81.9166 82.866H81.9015C81.8838 82.866 81.8689 82.8749 81.8515 82.8759C81.7663 82.8772 81.685 82.8943 81.6048 82.9257C81.6021 82.9269 81.599 82.9272 81.5964 82.9285C81.5089 82.9637 81.4304 83.016 81.3612 83.087C81.3569 83.0909 81.3522 83.0937 81.348 83.0979C81.3358 83.1111 81.3191 83.1176 81.3076 83.1318L78.0979 87.1478L74.8877 83.1318C74.8763 83.1176 74.8596 83.1108 74.8472 83.0979C74.8434 83.0937 74.8384 83.0909 74.8345 83.0872C74.7653 83.0163 74.6869 82.9637 74.5993 82.9285C74.5963 82.9272 74.5933 82.9269 74.5903 82.9257C74.5106 82.8946 74.429 82.8772 74.3442 82.8759C74.3265 82.8749 74.3119 82.866 74.2941 82.866H74.2787C74.2334 82.866 74.1943 82.8842 74.1511 82.8916C74.1475 82.8926 74.1438 82.8926 74.1399 82.8938C73.7787 82.9616 73.5 83.2639 73.5 83.6447V91.9977C73.5 92.4276 73.8486 92.776 74.2787 92.776H74.2941C74.7242 92.776 75.0726 92.4276 75.0726 91.9977V85.63L77.5449 88.7229C77.5619 88.7443 77.5865 88.7548 77.6054 88.7737C77.6243 88.7927 77.6345 88.817 77.6559 88.8337C77.6731 88.8473 77.6938 88.8509 77.7114 88.8625C77.7525 88.8897 77.794 88.9101 77.8388 88.9278C77.8807 88.9447 77.9207 88.9587 77.9643 88.9673C78.0089 88.9761 78.0522 88.978 78.0979 88.978C78.1432 88.978 78.1866 88.9761 78.2314 88.9673C78.2749 88.9587 78.3147 88.9447 78.3565 88.9278C78.4013 88.9101 78.4428 88.8897 78.4842 88.8625C78.5021 88.8509 78.5228 88.8473 78.5394 88.8337C78.5608 88.817 78.571 88.7927 78.5897 88.7737C78.6088 88.7548 78.6335 88.7443 78.6504 88.7229L81.1227 85.63V91.9977C81.1227 92.4276 81.4711 92.776 81.9015 92.776H81.9166C82.3469 92.776 82.6953 92.4276 82.6953 91.9977V83.6447C82.6953 83.2636 82.4166 82.9616 82.0555 82.8938Z" fill="url(#paint10_linear_123_52)"/>
<path d="M39.7317 82.7838C39.709 82.7838 39.6899 82.7947 39.6675 82.7967C39.6289 82.7977 39.5925 82.8122 39.5542 82.8194C39.5065 82.8309 39.4567 82.8346 39.4129 82.8542C39.335 82.8866 39.2656 82.9366 39.2011 82.9969C39.1929 83.0048 39.182 83.0088 39.1737 83.017C39.1683 83.0228 39.1605 83.0247 39.1553 83.0307L33.3832 89.9396V83.57C33.3832 83.1357 33.0311 82.7838 32.5968 82.7838C32.1627 82.7838 31.8105 83.1357 31.8105 83.57V91.9077C31.8105 92.2596 32.046 92.5468 32.3648 92.6471C32.4101 92.6646 32.4569 92.6675 32.5044 92.6753C32.5363 92.6793 32.5639 92.694 32.5968 92.694C32.6022 92.694 32.6067 92.691 32.6122 92.691C32.8118 92.6936 33.0111 92.621 33.156 92.4618L38.9455 85.5321V91.9077C38.9455 92.342 39.2977 92.694 39.7317 92.694C40.1659 92.694 40.5181 92.342 40.5181 91.9077V83.57C40.5181 83.1357 40.1659 82.7838 39.7317 82.7838V82.7838Z" fill="url(#paint11_linear_123_52)"/>
<path d="M70.5635 91.1924H65.3053V88.0411H69.3473C69.738 88.0411 70.0551 87.7244 70.0551 87.3336C70.0551 86.9429 69.738 86.6259 69.3473 86.6259H65.3053V84.2703H69.9431C70.356 84.2703 70.6902 83.9358 70.6902 83.5232C70.6902 83.1106 70.356 82.7763 69.9431 82.7763H64.4793C64.067 82.7763 63.7324 83.1106 63.7324 83.5232C63.7324 83.5289 63.7357 83.5336 63.7357 83.5391C63.7357 83.5443 63.7324 83.5491 63.7324 83.5548V91.9079C63.7324 91.9134 63.7357 91.9182 63.7357 91.9236C63.7357 91.9293 63.7324 91.9338 63.7324 91.9395C63.7324 92.3519 64.067 92.6865 64.4793 92.6865H70.5635C70.9759 92.6865 71.3104 92.3519 71.3104 91.9395C71.3104 91.527 70.9759 91.1924 70.5635 91.1924V91.1924Z" fill="url(#paint12_linear_123_52)"/>
<path d="M60.7969 82.7763H54.2416C53.8115 82.7763 53.4629 83.1247 53.4629 83.5548V83.5702C53.4629 84.0003 53.8115 84.3489 54.2416 84.3489H56.7328V91.9079C56.7328 92.3377 57.0817 92.6865 57.5116 92.6865H57.5269C57.957 92.6865 58.3057 92.3377 58.3057 91.9079V84.3489H60.7969C61.2272 84.3489 61.5756 84.0003 61.5756 83.5702V83.5548C61.5756 83.1247 61.2272 82.7763 60.7969 82.7763V82.7763Z" fill="url(#paint13_linear_123_52)"/>
<path d="M87.9942 88.9071L89.5009 85.4392L91.0074 88.9071H87.9942ZM94.0381 91.7398L90.3988 83.3627C90.2652 83.0533 89.964 82.8699 89.6472 82.8672H89.3551C89.0383 82.8694 88.7366 83.0531 88.6025 83.3627L84.9637 91.7398C84.8109 92.0929 84.9734 92.503 85.3265 92.6558L85.4448 92.7071C85.8634 92.8878 86.3494 92.6954 86.5306 92.2768L87.3556 90.3774H91.646L92.4712 92.2768C92.6522 92.6954 93.1382 92.8878 93.5568 92.7071L93.6752 92.6558C94.0282 92.503 94.1906 92.0929 94.0381 91.7398V91.7398Z" fill="url(#paint14_linear_123_52)"/>
<path fill-rule="evenodd" clip-rule="evenodd" d="M56.7731 66.5487C56.0965 66.5487 55.5476 66.0005 55.5476 65.3235C55.5476 64.6465 56.0965 64.0976 56.7731 64.0976C72.3906 64.0976 85.0976 51.392 85.0976 35.7745C85.0976 20.1571 72.3906 7.4515 56.7731 7.4515C41.156 7.4515 28.4511 20.1571 28.4511 35.7745C28.4511 36.4515 27.9029 37.0004 27.2257 37.0004C26.5487 37.0004 26 36.4515 26 35.7745C26 18.8053 39.804 5 56.7731 5C73.7424 5 87.5487 18.8053 87.5487 35.7745C87.5487 52.7438 73.7424 66.5487 56.7731 66.5487V66.5487Z" fill="url(#paint15_linear_123_52)"/>
<path fill-rule="evenodd" clip-rule="evenodd" d="M56.9068 56.7132C45.3601 56.7132 35.9668 47.3209 35.9668 35.7745C35.9668 35.0975 36.5152 34.5489 37.1924 34.5489C37.8694 34.5489 38.418 35.0975 38.418 35.7745C38.418 45.9683 46.7122 54.2621 56.9068 54.2621C67.0992 54.2621 75.3933 45.9683 75.3933 35.7745C75.3933 25.5811 67.0992 17.288 56.9068 17.288C56.2298 17.288 55.6813 16.7394 55.6813 16.0624C55.6813 15.3854 56.2298 14.8365 56.9068 14.8365C68.451 14.8365 77.8444 24.2292 77.8444 35.7745C77.8444 47.3209 68.451 56.7132 56.9068 56.7132V56.7132Z" fill="url(#paint16_linear_123_52)"/>
<path fill-rule="evenodd" clip-rule="evenodd" d="M56.907 46.876C50.7853 46.876 45.8047 41.8962 45.8047 35.7745C45.8047 29.6527 50.7853 24.6733 56.907 24.6733C63.0284 24.6733 68.0071 29.6527 68.0071 35.7745C68.0071 36.4515 67.4585 37.0004 66.7815 37.0004C66.1045 37.0004 65.5561 36.4515 65.5561 35.7745C65.5561 31.0046 61.6766 27.1244 56.907 27.1244C52.1371 27.1244 48.2558 31.0046 48.2558 35.7745C48.2558 40.5444 52.1371 44.4246 56.907 44.4246C57.584 44.4246 58.1326 44.9732 58.1326 45.6501C58.1326 46.3271 57.584 46.876 56.907 46.876V46.876Z" fill="url(#paint17_linear_123_52)"/>
<defs>
<linearGradient id="paint0_linear_123_52" x1="81.8336" y1="78.1017" x2="88.5273" y2="73.1647" gradientUnits="userSpaceOnUse">
<stop stop-color="#0089C5"/>
<stop offset="1" stop-color="#00A08F"/>
</linearGradient>
<linearGradient id="paint1_linear_123_52" x1="70.6184" y1="78.127" x2="77.6711" y2="71.9459" gradientUnits="userSpaceOnUse">
<stop stop-color="#0089C5"/>
<stop offset="1" stop-color="#00A08F"/>
</linearGradient>
<linearGradient id="paint2_linear_123_52" x1="90.9486" y1="78.127" x2="98.0627" y2="71.0135" gradientUnits="userSpaceOnUse">
<stop stop-color="#0089C5"/>
<stop offset="1" stop-color="#00A08F"/>
</linearGradient>
<linearGradient id="paint3_linear_123_52" x1="26.7557" y1="78.0794" x2="33.7406" y2="71.5984" gradientUnits="userSpaceOnUse">
<stop stop-color="#0089C5"/>
<stop offset="1" stop-color="#00A08F"/>
</linearGradient>
<linearGradient id="paint4_linear_123_52" x1="59.635" y1="78.0794" x2="66.5015" y2="72.4584" gradientUnits="userSpaceOnUse">
<stop stop-color="#0089C5"/>
<stop offset="1" stop-color="#00A08F"/>
</linearGradient>
<linearGradient id="paint5_linear_123_52" x1="50.5623" y1="78.0794" x2="57.3004" y2="72.9884" gradientUnits="userSpaceOnUse">
<stop stop-color="#0089C5"/>
<stop offset="1" stop-color="#00A08F"/>
</linearGradient>
<linearGradient id="paint6_linear_123_52" x1="14.888" y1="78.127" x2="21.9406" y2="71.9459" gradientUnits="userSpaceOnUse">
<stop stop-color="#0089C5"/>
<stop offset="1" stop-color="#00A08F"/>
</linearGradient>
<linearGradient id="paint7_linear_123_52" x1="38.6594" y1="78.0785" x2="45.6424" y2="71.602" gradientUnits="userSpaceOnUse">
<stop stop-color="#0089C5"/>
<stop offset="1" stop-color="#00A08F"/>
</linearGradient>
<linearGradient id="paint8_linear_123_52" x1="21.2356" y1="90.8253" x2="28.2882" y2="84.6442" gradientUnits="userSpaceOnUse">
<stop stop-color="#0089C5"/>
<stop offset="1" stop-color="#00A08F"/>
</linearGradient>
<linearGradient id="paint9_linear_123_52" x1="43.8684" y1="90.8253" x2="50.9209" y2="84.6448" gradientUnits="userSpaceOnUse">
<stop stop-color="#0089C5"/>
<stop offset="1" stop-color="#00A08F"/>
</linearGradient>
<linearGradient id="paint10_linear_123_52" x1="74.4256" y1="90.8674" x2="81.4103" y2="84.3864" gradientUnits="userSpaceOnUse">
<stop stop-color="#0089C5"/>
<stop offset="1" stop-color="#00A08F"/>
</linearGradient>
<linearGradient id="paint11_linear_123_52" x1="32.687" y1="90.7854" x2="39.6332" y2="84.6821" gradientUnits="userSpaceOnUse">
<stop stop-color="#0089C5"/>
<stop offset="1" stop-color="#00A08F"/>
</linearGradient>
<linearGradient id="paint12_linear_123_52" x1="64.4952" y1="90.7779" x2="71.2548" y2="85.609" gradientUnits="userSpaceOnUse">
<stop stop-color="#0089C5"/>
<stop offset="1" stop-color="#00A08F"/>
</linearGradient>
<linearGradient id="paint13_linear_123_52" x1="54.2795" y1="90.7779" x2="61.1459" y2="85.1568" gradientUnits="userSpaceOnUse">
<stop stop-color="#0089C5"/>
<stop offset="1" stop-color="#00A08F"/>
</linearGradient>
<linearGradient id="paint14_linear_123_52" x1="85.8312" y1="90.8668" x2="92.8141" y2="84.3904" gradientUnits="userSpaceOnUse">
<stop stop-color="#0089C5"/>
<stop offset="1" stop-color="#00A08F"/>
</linearGradient>
<linearGradient id="paint15_linear_123_52" x1="32.1955" y1="54.6951" x2="75.6971" y2="11.1931" gradientUnits="userSpaceOnUse">
<stop stop-color="#0089C5"/>
<stop offset="1" stop-color="#00A08F"/>
</linearGradient>
<linearGradient id="paint16_linear_123_52" x1="40.1822" y1="48.6482" x2="69.78" y2="19.0495" gradientUnits="userSpaceOnUse">
<stop stop-color="#0089C5"/>
<stop offset="1" stop-color="#00A08F"/>
</linearGradient>
<linearGradient id="paint17_linear_123_52" x1="48.0396" y1="42.6" x2="63.7321" y2="26.9075" gradientUnits="userSpaceOnUse">
<stop stop-color="#0089C5"/>
<stop offset="1" stop-color="#00A08F"/>
</linearGradient>
</defs>
</svg>
