<svg width="62" height="62" viewBox="0 0 62 62" fill="none" xmlns="http://www.w3.org/2000/svg">
<path fill-rule="evenodd" clip-rule="evenodd" d="M30.7731 61.5487C30.0965 61.5487 29.5476 61.0005 29.5476 60.3235C29.5476 59.6465 30.0965 59.0976 30.7731 59.0976C46.3906 59.0976 59.0976 46.392 59.0976 30.7745C59.0976 15.1571 46.3906 2.4515 30.7731 2.4515C15.156 2.4515 2.4511 15.1571 2.4511 30.7745C2.4511 31.4515 1.9029 32.0004 1.2257 32.0004C0.5487 32.0004 0 31.4515 0 30.7745C0 13.8053 13.804 0 30.7731 0C47.7424 0 61.5487 13.8053 61.5487 30.7745C61.5487 47.7438 47.7424 61.5487 30.7731 61.5487V61.5487Z" fill="url(#paint0_linear_121_79)"/>
<path fill-rule="evenodd" clip-rule="evenodd" d="M30.9068 51.7132C19.3601 51.7132 9.9668 42.3209 9.9668 30.7745C9.9668 30.0975 10.5152 29.5489 11.1924 29.5489C11.8694 29.5489 12.418 30.0975 12.418 30.7745C12.418 40.9683 20.7122 49.2621 30.9068 49.2621C41.0992 49.2621 49.3933 40.9683 49.3933 30.7745C49.3933 20.5811 41.0992 12.288 30.9068 12.288C30.2298 12.288 29.6813 11.7394 29.6813 11.0624C29.6813 10.3854 30.2298 9.83649 30.9068 9.83649C42.451 9.83649 51.8444 19.2292 51.8444 30.7745C51.8444 42.3209 42.451 51.7132 30.9068 51.7132V51.7132Z" fill="url(#paint1_linear_121_79)"/>
<path fill-rule="evenodd" clip-rule="evenodd" d="M30.907 41.876C24.7853 41.876 19.8047 36.8962 19.8047 30.7745C19.8047 24.6527 24.7853 19.6733 30.907 19.6733C37.0284 19.6733 42.0071 24.6527 42.0071 30.7745C42.0071 31.4515 41.4585 32.0004 40.7815 32.0004C40.1045 32.0004 39.5561 31.4515 39.5561 30.7745C39.5561 26.0046 35.6766 22.1244 30.907 22.1244C26.1371 22.1244 22.2558 26.0046 22.2558 30.7745C22.2558 35.5444 26.1371 39.4246 30.907 39.4246C31.584 39.4246 32.1326 39.9732 32.1326 40.6501C32.1326 41.3271 31.584 41.876 30.907 41.876V41.876Z" fill="url(#paint2_linear_121_79)"/>
<defs>
<linearGradient id="paint0_linear_121_79" x1="6.19548" y1="49.6951" x2="49.6971" y2="6.19309" gradientUnits="userSpaceOnUse">
<stop stop-color="#0089C5"/>
<stop offset="1" stop-color="#00A08F"/>
</linearGradient>
<linearGradient id="paint1_linear_121_79" x1="14.1822" y1="43.6482" x2="43.78" y2="14.0495" gradientUnits="userSpaceOnUse">
<stop stop-color="#0089C5"/>
<stop offset="1" stop-color="#00A08F"/>
</linearGradient>
<linearGradient id="paint2_linear_121_79" x1="22.0396" y1="37.6" x2="37.7321" y2="21.9075" gradientUnits="userSpaceOnUse">
<stop stop-color="#0089C5"/>
<stop offset="1" stop-color="#00A08F"/>
</linearGradient>
</defs>
</svg>
