<svg width="21" height="21" viewBox="0 0 21 21" fill="none" xmlns="http://www.w3.org/2000/svg">
<g clip-path="url(#clip0_68_7)">
<path fill-rule="evenodd" clip-rule="evenodd" d="M1.64058 20.2615L0.728199 19.3691C0.769818 19.2165 1.32612 18.3946 1.47652 18.1697L2.23095 16.9964C2.41519 16.7211 2.57117 16.4649 2.74799 16.2009L4.80891 18.2415L2.85455 19.5067C2.71152 19.6025 2.59294 19.6874 2.45896 19.7673C2.27116 19.8794 1.81524 20.2207 1.64058 20.2614V20.2615ZM5.30118 17.8518L3.14819 15.6777L8.23395 10.6127L10.3871 12.7454L5.30118 17.8518V17.8518ZM11.0742 7.91576C10.8821 7.91576 10.7294 7.84896 10.6324 7.74228C10.138 7.19854 10.8171 6.71675 11.0844 6.44944C11.3406 6.19334 11.5666 5.96727 11.8227 5.71117C12.3249 5.20896 12.7971 4.73682 13.2993 4.23461C13.5301 4.00377 16.1007 1.39339 16.2832 1.27123L17.1545 2.12253C16.9512 2.26198 12.5005 6.75605 11.9663 7.29026C11.7495 7.50701 11.4637 7.91574 11.0742 7.91574L11.0742 7.91576ZM18.8672 2.95287L18.0373 2.10108C18.8619 1.53798 19.4874 0.101406 20.1928 0.806888C20.3617 0.975721 20.4371 1.22548 20.3161 1.48914C20.2508 1.6314 18.9839 2.87471 18.8672 2.95289V2.95287ZM17.5957 1.64038C17.2263 1.39304 16.6301 0.49194 16.2832 0.49194C16.0524 0.49194 15.6293 1.0023 15.3911 1.24048L10.4692 6.16235C9.93321 6.69836 9.84373 6.78128 9.84373 7.4646C9.84373 8.11447 10.9327 9.24058 12.11 8.04926C12.6362 7.51689 17.4001 2.71473 17.5957 2.58374L19.0824 4.05017L10.8383 12.3147L8.68533 10.1406C8.80468 10.0587 9.7611 9.13469 9.83182 8.96633C9.92703 8.73969 9.76842 8.531 9.55664 8.531C9.30871 8.531 8.43043 9.51367 8.21338 9.7307L3.12745 14.8166C2.91556 15.0285 2.6873 15.2331 2.49166 15.4523C2.39627 15.5592 2.32454 15.6876 2.23942 15.8153C2.14041 15.9638 2.07322 16.0591 1.98184 16.214C1.80152 16.5196 0 19.2172 0 19.3181C0 19.7313 0.307469 19.7805 0.492181 20.0564C0.286831 20.363 0 20.3791 0 20.7536C0 20.9455 0.210258 20.9997 0.369147 20.9997C0.485302 20.9997 0.709576 20.725 0.836275 20.6055L0.943365 20.5075C1.2192 20.6922 1.26843 20.9997 1.68164 20.9997C1.73789 20.9997 5.40302 18.6555 5.63 18.4266L19.3286 4.72677C19.7454 4.30991 19.8516 4.3471 19.8516 3.97823C19.8516 3.85089 19.445 3.5318 19.3594 3.40401C19.7782 2.77846 21 2.09085 21 1.35323V1.10713C21 0.578521 20.4212 -0.000305176 19.8926 -0.000305176C19.1372 -0.000305176 19.0703 0.186186 18.5288 0.727723C18.3013 0.955233 17.8194 1.49049 17.5957 1.64031L17.5957 1.64038Z" fill="white"/>
</g>
<defs>
<clipPath id="clip0_68_7">
<rect width="21" height="21" fill="white"/>
</clipPath>
</defs>
</svg>
